<svg xmlns="http://www.w3.org/2000/svg" xmlns:xlink="http://www.w3.org/1999/xlink" id="Layer_1" x="0" y="0" enable-background="new 0 0 1366 768" version="1.1" viewBox="0 0 1366 768" xml:space="preserve"><style type="text/css">.st0,.st1{fill:#fff}.st1{stroke:#333;stroke-miterlimit:10}.st2{fill:gray}.st3{fill:#333}.st4{fill:#fff;stroke:#000;stroke-width:.5;stroke-miterlimit:10}</style><path d="M851.65,666.5h-199.4c-1.03-3.27-11-21.55-11-21.55l-11.03-26.06l-5.33-11.93c0.31,0.32,2.8,2.57,9.34-2.11	c7.02-5.01,12.03-13.03,12.03-13.03l13.27-20.74l2.77-4.32l17.04-24.06c0,0,8.02-14.03,13.03-15.04c5.01-1,3.01,0,3.01,0s2,0,2,2.01	s-4.01,7.02-4.01,7.02v2.01l12.03-4.01c0,0,11.03-3.01,16.04-6.01c5.01-3.01,8.02-1,10.02-1c2.01,0,15.04,10.02,15.04,10.02	l31.08,22.05l28.07,21.05l12.03,8.02c0,0,2.01,1,4.01,1c2,0,4.01-2.01,4.01-6.01c0-1.12-0.39-3.09-0.95-5.36l7.97,22.41l13.03,43.11	L851.65,666.5z" class="st0"/><path d="M824.54,578.59l-3.89-13.1c0.06,0.18,0.14,0.4,0.23,0.67c0.02,0.09,0.05,0.18,0.09,0.28	c0.05,0.17,0.11,0.36,0.18,0.56c0.06,0.22,0.14,0.45,0.22,0.69c0.01,0.03,0.02,0.06,0.03,0.1c0.06,0.21,0.13,0.43,0.21,0.66	c0.08,0.26,0.17,0.54,0.26,0.83c0.08,0.28,0.18,0.58,0.27,0.88c0.05,0.15,0.1,0.3,0.14,0.46c0.1,0.31,0.19,0.63,0.29,0.95	c0.08,0.26,0.16,0.52,0.24,0.79c0.2,0.68,0.4,1.38,0.61,2.08c0.01,0.04,0.02,0.09,0.04,0.14c0.27,0.94,0.53,1.9,0.77,2.82	C824.34,577.8,824.44,578.2,824.54,578.59z" class="st0"/><path d="M824.54,578.59l-3.89-13.1c0.06,0.18,0.14,0.4,0.23,0.67c0.03,0.09,0.06,0.19,0.09,0.28	c0.05,0.17,0.11,0.36,0.18,0.56c0.06,0.22,0.14,0.45,0.22,0.69c0.01,0.03,0.02,0.06,0.03,0.1c0.07,0.21,0.14,0.43,0.21,0.66	c0.08,0.26,0.17,0.54,0.26,0.83c0.08,0.28,0.18,0.58,0.27,0.88c0.05,0.15,0.1,0.3,0.14,0.46c0.1,0.31,0.19,0.63,0.29,0.95	c0.08,0.26,0.16,0.52,0.24,0.79c0.2,0.68,0.41,1.38,0.61,2.08c0.01,0.04,0.02,0.09,0.04,0.14c0.27,0.94,0.53,1.9,0.77,2.82	C824.34,577.8,824.44,578.2,824.54,578.59z" class="st0"/><path d="M824.54,578.59l-3.89-13.1c0.06,0.18,0.14,0.4,0.23,0.67c0.02,0.09,0.05,0.18,0.09,0.28	c0.05,0.17,0.11,0.36,0.18,0.56c0.06,0.22,0.14,0.45,0.22,0.69c0.01,0.03,0.02,0.06,0.03,0.1c0.06,0.21,0.13,0.43,0.21,0.66	c0.08,0.26,0.17,0.54,0.26,0.83c0.08,0.28,0.18,0.58,0.27,0.88c0.05,0.15,0.1,0.3,0.14,0.46c0.1,0.31,0.19,0.63,0.29,0.95	c0.08,0.26,0.16,0.52,0.24,0.79c0.2,0.68,0.4,1.38,0.61,2.08c0.01,0.04,0.02,0.09,0.04,0.14c0.27,0.94,0.53,1.9,0.77,2.82	C824.34,577.8,824.44,578.2,824.54,578.59z" class="st0"/><path d="M586.5,478.5l-8-50l-15-22l-15-24l-7,7l-14-7l-9-31l-9-27l-1-5l-2-8v-7l1-8l-5-6l-2-6l5,5l2-5l1,8l8,4h5l1,7	l7,8l2-5l1-13l-2-7l2-14l-7,2l-1-6l1-8l-3-6l-1-4l3-18v-5l-3,1l-1-2l1-6l-3-1v-4l-1-4l-3-1l1-7l1-3l1-6l-3-2l3-3l7-25l4-9l10-14	l17-22l11-4l18-5l13-3l17-4l1-3l2,1l1-2h4l6-4h14l-1-2l9,1l26,6l13,6l6.78,4.75l3.22,2.25l6,5l4,2l12,13l7,12l7,8l6,10h-4l2,11l6,10	l4,3v4l-2,2l2,5l5.9,25.18l0.79,2.72l8.31,23.1l1.61,9.53l3.39,4.47v-13l5-6l6-11v-6l2,1l2,11l3,11v6l2,3v17l-1,15l2,23l2,9l-8,14	l-4,5l2,19l-2,11l-8,20l3,17l3,25l6,18v10l-0.35,1.65l-2.65-1.65c0,0-3.15,1-6.58,5c-3.42,4-8.5,10.24-8.5,10.24l-10.13,10.71	l-14.15,14.22l-15.1,11.77l-6.53,5.05c0,0-3,5-7,5s-8.72-1.39-8.72-1.39l-10.26-2.97l-31.41-10.78l-29.2-10.34l-28.49-10.71	c0,0-8-3.88-11.96-8.84c-3.96-4.96-6.06-3.01-6.06-3.01L586.5,478.5z" class="st1"/><path d="M695.98,596.19c0,0-3.48,5.31-5.48,9.31s-2,14-2,15s-1,10,1,21s3,19,3,19l2,6h89c0,0-4-15-16-33s-20-23-20-23	l-17-15l-4-6c0,0-4-6-7-7s-4-2-7-2s-5,0-7,1s-5,4-6,7s-1.73,5.18-1.73,5.18L695.98,596.19z" class="st2"/><path d="M767.03,477.11l-3.53,0.39l-6,4l-6,2l-5,3l-4,1l-2,2h-3l-8,7l-7,7l-5,3h-4l-6-2v2l-6,1l-8,1l-8-1l4-3l5,1l4-2	l-2-3v-2h2l3-2l2-2l1,2h2l3-4l2-1h2l2-2l-1-2h-2l-4-2l2,3l-3,3l-4-1l1-2v-3l-3,1v3l-3,1l-3-1l1-3l2-3l4-3h3l2-2l1-3l1-2l2,3l2-1l3-2	v-2l-2-3l-1,3l-6-1h-2l-2,2v2h-3l-2-1h-3l-2,1v2h-3l-4-1l-4,1l-1-3v-3h-5l-3,2l-4-1l-2-3l4-2h3l6-1h3l1,2l3-2h7l2-2l2-1v-2h3l2-2	l3-1l3-3l2-1l1-2h3h3v-2l1-2l1-2l2-1l2-2l2-1l1-3l4-2l-1-4l-2,1l-1,3l-3,3l-4,1l-2,2l-5,4l-2-1v-3h-4l-5,2l-3,1l3-4l4-1l2-4l-1-2h-3	l-2-2l-2,2l-5-2l-5,1l-5,2l-6,2h-8l-3-1l-1,1l-4,1l-3,1l-1,2l-1,3l-2,1l-1,2l-2-4l-3-2l-2-3h-3l2,4l2,3l1,3l-5-2l-1-2l-5-2v2l-3-1	l-3-2l6-1l-1-3l-5-4h-4l-1,2v2l2,2l1,3l-6-3l-4-5l-5-4l-3-2l-3-2l-4-4l2-2h-4l-3-3c0,0-6-4-7-4s-5-3-5-3l-3,1l7,6l5,5l6,6l4,3l2,2	l1,3h1l4,2l-6,2l-4-1l-5-2l-1,1l2,4l6,4l3,3l1,3l1,4l2,3l1-2v-3h3l3,1v4l2,3l-4,3l3,2l3,1v4v2h4l2,2l2,1l6,2l2,1l1-2l3,4l5-2l1,2	l-3,2l6-1l2,2l-4,2l-8-1l-5-3l-3-3l-4,1l-5-3l-6-2l-4-4l-5,1l4,5l7,5l7,2l6,6l7,4l4,1v4l-5-1l-10.9-1.01l50.99,17.93l14.9,5.08	l5,1.27c0,0,6,1.73,10,1.73s7-5,7-5l22.2-17.26L767.03,477.11z" class="st2"/><polygon points="615.5 359.5 614.5 367.5 612.5 371.5 610.5 373.5 607.5 372.5 610.5 377.5 610.5 381.5 608.5 383.5 605.5 389.5 605.5 395.5 608.5 395.5 609.5 392.5 610.5 383.5 614.5 387.5 620.5 391.5 617.5 394.5 622.5 395.5 624.5 398.5 628.5 401.5 624.5 402.5 622.21 401.35 620.5 400.5 618.5 396.5 613.5 396.5 615.5 400.5 626.5 404.5 630.5 406.5 636.5 405.5 640.5 410.5 645.5 409.5 646.5 407.5 653.5 409.5 659.5 408.5 661.5 411.5 669.5 411.5 681.5 409.5 687.5 410.5 694.5 404.5 696.5 404.5 696.5 401.5 700.5 401.5 700.5 398.5 702.5 395.5 704.5 398.5 708.5 395.5 712.5 392.5 715.5 392.5 715.5 387.5 709.5 389.5 706.5 389.5 706.5 387.5 702.5 389.5 696.5 389.5 690.5 389.5 684.5 393.5 679.5 393.5 674.5 392.5 670.5 394.5 664.5 394.5 660.5 394.5 658.5 389.5 655.5 386.5 646.5 385.5 634.5 385.5 624.5 385.5 618.5 383.5 616.5 380.5 621.5 380.5 628.5 378.5 633.5 378.5 636.5 382.5 641.5 379.5 646.5 379.5 649.5 378.5 651.5 381.5 653.5 382.5 655.5 380.5 658.5 380.5 659.5 378.5 662.5 380.5 665.5 379.5 670.5 378.5 673.5 379.5 679.5 378.5 684.5 375.5 688.5 375.5 694.5 372.5 700.5 369.5 707.5 363.5 712.5 360.5 717.5 359.5 728.5 357.5 732.5 359.5 738.5 357.5 732.5 351.5 726.5 347.5 721.5 347.5 716.5 348.5 707.5 345.5 700.5 343.5 689.5 341.5 676.5 342.5 658.5 343.5 643.5 346.5 631.5 355.5 624.5 364.5 620.5 367.5 616.5 364.5 620.5 362.5 620.5 359.5 616.5 357.5" class="st2"/><polygon points="618.5 289.5 623.5 288.5 623.5 290.5 623.5 293.5 620.5 297.5 615.5 305.5 613.5 314.5 610.5 322.5 606.5 328.5 605.5 332.5 602.5 340.5 599.5 350.5 597.5 355.5 599.5 359.5 601.5 363.5 602.5 370.5 604.5 371.5 605.5 353.5 608.5 343.5 612.5 338.5 614.5 328.5 617.5 322.5 618.5 316.5 623.5 314.5 626.5 314.5 633.5 318.5 644.5 319.5 649.5 321.5 651.5 322.5 651.5 325.5 648.5 329.5 655.5 326.5 658.5 328.5 662.5 334.5 663.5 336.5 667.5 337.5 664.5 334.5 666.5 332.5 670.5 329.5 671.5 331.5 673.5 331.5 675.5 329.5 675.5 326.5 676.5 321.5 679.5 322.5 679.5 320.5 677.5 318.5 677.5 316.5 680.5 312.5 683.5 310.5 688.5 308.5 693.5 307.5 694.5 303.5 688.5 298.5 685.5 296.5 682.5 296.5 677.5 297.5 674.5 301.5 672.5 302.5 667.5 301.5 661.5 301.5 656.5 302.5 653.5 300.5 647.5 300.5 643.5 301.5 636.5 303.5 630.5 308.5 627.5 310.5 625.5 307.5 624.5 301.5 626.5 296.5 628.5 291.5 631.5 288.5 631.5 286.5 627.5 284.5 624.5 284.5" class="st2"/><path d="M755.08,222.7c0,0,0.42,17.8-0.58,22.8s-1,4-1,4s-1,3-4,5s-9,5-9,5l-13,5l-13,3l-13,2c0,0-1,1-11,0s-12-3-12-3	l-6-6l-8-12c0,0-2-6-5-8s-6-2-6-2s-3-1-6,1s-3,1-5,5s-3,12-3,12s0,6-2,11s-6,10-6,10s-7,5-12,7s-4,3-15,5s-20,4-28,4s-12,0-15-2	s-7-3-10-10s-5-14-7-17s-3-4-5-5s-2-2-3-4s-1-6-1-6l-1-1v-5l7-3l7-4l4-1l4-6l6-7l7-3h5l9-4l5-2l6-1l3-1h16l3,3l4,3l2,2l3,2l-4,2h-3	l3,2h3h2l1-1h16h4l4-1l4-2h3l5-4l3-2l2-1l4-2l9-3h-6l-5,3l-6,2v-4l2-5l1-3l4-3l5-1l8-3h9v-2h7l6-1l4-1h6l6,2l3,1v6l19-1l5-1	L755.08,222.7z" class="st3"/><path d="M742.5,203.5c0,0,9,5,9,19s1,16,0,21s-2,6-3,7s-6,5-10,7s-18,6-18,6s-11,3-21,3s-11,1-16-2s-6-3-8-6s-6-10-6-10	s-6-11-6-15s0-7,1-9s3-3,3-3s9-7,18-9s20-5,20-5s8-2,16-3s16-1,16-1H742.5z" class="st0"/><polygon points="689.83 211.5 678.5 216.5 674.5 219.5 687.5 214.5 695.5 213.5 703.5 214.5 714.5 215.5 718.5 218.5 722.5 222.5 725.5 226.5 725.5 233.5 720.5 232.5 716.5 232.5 711.5 236.5 706.5 237.5 700.5 236.5 696.5 236.5 687.5 241.5 683.5 245.5 679.5 247.5 676.5 247.5 673.5 247.5 670.5 245.5 669.5 248.5 663.5 233.5 663.99 226.17 665.76 222.63 671 219 680.42 214.1" class="st2"/><path d="M548.5,243.5c-2,4-1,12-1,12l3,13c0,0,4,14,7,16s3,4,9,5s10,2,22,0s20-4,20-4s9-1,15-6s5-4,7-7s3-8,3-8l1-11	v-13c0,0,0-5-3-8s-10-4-10-4h-18l-17,2l-19,4l-10,3L548.5,243.5z" class="st0"/><path d="M634.5,249.73l-8,7.77l-8,5h-4l-3-3c0,0-7-2-8-2s-6,2-6,2l-11,1l-16,3l-7,7l-3-3l-4,3l-5-5v-8l1-4l-1-12l6-4	l29-7l14.34-2h20.66c0,0,6,0,10,4s3,8,3,8V249.73z" class="st2"/><path d="M355.5,664.5c0,0-2-3,6-11s20-13,20-13l26-15l39-22l30-16l53-28c0,0,7-3,19-14s11-9,15-14s4-11,7-17s8-9,8-9	s2-1,3,1s0,10,0,10s0,7,3,11s16,29,16,29l17,33l13,29l11,26c0,0,12,22,11,22S355.5,664.5,355.5,664.5z" class="st3"/><path d="M625.15,606.56c0,0,2.35,2.94,9.35-2.06s12-13,12-13l13.24-20.69l2.76-4.31l17-24c0,0,8-14,13-15s3,0,3,0	s2,0,2,2s-4,7-4,7v2l12-4c0,0,11-3,16-6s8-1,10-1s15,10,15,10l31,22l28,21l12,8c0,0,2,1,4,1s4-2,4-6s-5-19-5-19l-10-49l-7-28	c0,0-1-6-4-11s-10-9-10-9l-8-5c0,0-2,0-4,2s-8,10-8,10l-17,18c0,0-7,8-15,14s-17,13-17,13s-3,5-7,5s-15-3-15-3l-44-15l-41-15	c0,0-12-4-16-8s-7-7-7-7s-2-2-4,1s0,7,0,14s-3,12-3,12l-1.56,6.36l-0.44,6.64c0,0,0.67,7,1.83,9c1.17,2,5.1,8.52,5.1,8.52	l9.21,17.04l13.89,26.86L625.15,606.56z" class="st4"/><path d="M659.5,570.5c0,0,10-7,18-3s10,7,10,7s4,2,6,16s6-2,6-2s3-6,6-7s5-1,7-1s7,2,7,2s6,4,7,7s2-3,2-3s-2-5,0-10	s1-6,6-13s6-8,6-8l7-8l4-4l1.09-1.68l-16.11-11.59c0,0-5.24-4.76-11.11-3.24c-5.87,1.51-6.97,3.08-6.97,3.08l-9.23,3.35l-15.67,5.08	v-2c0,0,7-9,2-9s-4.46,0.59-4.46,0.59l-4.87,4.62l-8.83,12.84L659.5,570.5z" class="st3"/><path d="M824.54,578.11l7.96,22.39l13,43l6,23h283c0,0,6-9-10-68s-37-69-37-69s-32-12-76-17s-50-9-78-10s-72,0-72,0	s-20,2-33-4s-17-13-17-13s-1-4-8-6l-2.69-0.51l1.87,5.08l7.82,31.43l7.04,34.48l2.96,14.52L824.54,578.11z" class="st3"/><polygon points="758.5 383.5 755.5 394.5 759.5 389.5" class="st2"/><polygon points="752.5 402.5 750.5 406.5 752.5 405.5" class="st2"/><polygon points="749.5 409.5 745.5 414.5 737.5 425.5 740.5 424.5 747.5 414.5" class="st2"/><polygon points="719.5 485.5 720.5 481.5 723.5 479.5 726.5 477.5 732.5 472.5 736.5 468.5 741.5 468.5 741.5 464.5 743.5 465.5 745.5 463.5 749.5 460.5 751.5 460.5 750.5 463.5 748.5 467.5 746.5 469.5 744.5 468.5 742.5 472.5 738.5 475.5 735.5 478.5 730.5 478.5 727.5 480.5 726.5 484.5 723.5 485.5" class="st2"/><polygon points="761.5 462.5 759.5 465.5 759.5 467.5 762.5 466.5 763.5 463.5" class="st2"/><polygon points="620.5 376.5 625.5 372.5 625.5 369.5 627.5 368.5 629.5 365.5 631.5 365.5 631.5 361.5 634.5 365.5 636.5 365.5 638.5 362.5 640.5 365.5 640.5 368.5 642.5 370.5 642.5 364.5 645.5 360.5 646.5 364.5 644.5 368.5 644.5 373.5 646.5 375.5 643.5 377.5 638.5 378.5 634.5 375.5 632.5 373.5 628.5 376.5 624.5 377.5" class="st3"/><polygon points="689.5 351.5 692.5 353.5 693.5 355.5 697.5 358.5 700.5 358.5 703.5 358.5 703.5 361.5 699.5 361.5 698.5 363.5 699.5 366.5 702.5 366.5 707.5 363.5 712.5 360.5 717.5 358.5 723.5 357.5 723.5 355.5 716.5 353.5 707.5 353.5 704.5 355.5 699.5 353.5 695.5 351.5" class="st3"/><polygon points="668.5 398.5 674.5 395.5 679.5 398.5 674.5 401.5" class="st3"/><polygon points="656.5 372.5 653.5 376.5 654.5 378.5 657.5 378.5 658.5 375.5" class="st3"/><polygon points="655.5 351.5 660.5 348.5 662.5 351.5 664.5 351.5 661.5 353.5 658.5 353.5" class="st3"/><polygon points="633.5 309.5 637.5 305.5 641.5 304.5 646.5 304.5 650.5 304.5 653.5 306.5 648.5 307.5 646.5 310.5 648.5 312.5 645.5 313.5 640.5 314.5 633.5 315.5 641.5 312.5 641.5 309.5" class="st3"/><polygon points="674.5 303.5 678.5 299.5 683.5 297.5 687.5 299.5 689.5 301.5 683.5 303.5 680.5 304.5 676.5 304.5" class="st3"/><polygon points="683.5 279.5 701.5 292.5 712.5 303.5 716.5 309.5 719.5 309.5 720.5 312.5 720.5 317.5 715.5 312.5 703.5 300.5 700.5 298.5 694.5 300.5 696.5 295.5 694.5 291.5 691.5 288.5" class="st2"/><polygon points="728.5 325.5 734.5 333.5 740.5 341.5 740.5 337.5 737.5 330.5 733.5 324.5" class="st2"/><path d="M755.5,224.5l4,11l5,14c0,0,1,10,2,10s3,4,3,4v-13c0,0,5-5,5-6s6-11,6-11v-6l2,1l-2-9l-8-23l-3-17l-8-16l-2-13	l2-1l-7-12l-10-15l-16-9h-7l-1-5h-10v-5l-6,1l-2-4l-6,1l-8-9h-3v3l-16-15h-4l-17-10l-16-3l-24,3l-21,5l-22,5l-10,1l-7,1l-6,5l-8,3	l-8,5l-1,2l9-2h5l-2,4l-5,6l-7,1l-3,2l3,3l-3,8l-2,2l-6,2l1,3l-7,10l-8,12l-6,10l-1,11l-4,14v10l3-2l3,2l-1,22l3,12v15l2,12l1,16	l-3,4l3,10l5,5l2-5l1,8l8,4h5l1,7l7,8l2-5l1-13l-2-7l2-14l-7,2l-1-6l1-8l-3-6l-1-4l3-18v-5l-3,1l-1-2l1-6l-3-1v-4l-1-4l-3-1l1-7l1-3	l1-6l-3-2l3-3l3-12l4-13l4-9l10-14l11-13l6-9l11-4l18-5l13-3l17-4l1-3l2,1l1-2h4l6-4h14l-1-2l9,1c0,0,9,2,10,2s16,4,16,4l13,6l10,7	l6,5l4,2l12,13l7,12l7,8l6,10h-4l2,11l6,10l4,3v4l-2,2l2,5L755.5,224.5z" class="st3"/><polygon points="509.5 301.5 513.5 302.5 516.5 305.5 518.5 309.5 518.5 325.5 516.5 328.5 512.5 317.5 509.5 308.5" class="st2"/><polygon points="525.5 332.5 522.5 337.5 522.5 343.5 529.5 351.5 532.5 354.5 532.5 348.5 527.5 341.5 526.5 337.5" class="st2"/><polygon points="573.5 364.5 573.5 366.5 576.5 365.5" class="st2"/><polygon points="702.5 380.5 699.5 381.5 700.5 383.5 702.5 382.5" class="st2"/><polygon points="707.5 378.5 711.5 376.5 708.5 373.5 712.5 372.5 711.5 370.5 715.5 370.5 718.5 372.5 720.5 372.5 716.5 376.5 712.5 378.5 708.5 379.5" class="st2"/><polygon points="662.5 315.5 665.5 313.5 665.5 316.5" class="st3"/><polygon points="782.5 248.5 778.5 248.5 775.5 255.5 781.5 267.5 785.5 274.5 785.5 265.5" class="st2"/><path d="M703.5,576.5c1,0,9,1,9,1h6l-2-5l3-11l7-10l4-8v-6l-5-3h-6l-5,3l-8,7l-6,4l-3,3l1,8l3,4L703.5,576.5z" class="st2"/><polygon points="720.5 587.5 721.5 594.5 726.5 601.5 730.5 603.5 727.5 597.5 725.5 594.5 727.95 591.68 722.5 585.06" class="st3"/><path d="M729.5,605.5c0,0,2,6,3,7s6,6,6,6l5,5l8,1l-6-8l-3-3l4,1l-8-5l-6-4H729.5z" class="st3"/><path d="M795.94,572.75l-17.44-2.25l-4-4l-4-4h-7c0,0-4,0-4,1s-10,3-11,3s-7-1-8,0s-6,4-7,5s2-5,2-5l11-2l-2-4l3-3l6-1	l5-5l-3-3l-4-2v-3l1-2L795.94,572.75z" class="st2"/><path d="M681.08,569.45l-11.58,3.05c0,0-3,5-3,6s-1,6-1,7s1,5,1,5l-6-3l-5-2l-4.88-0.44l8.88-14.56l5.41-2.78l6.09-1.42	l3.38,0.17l3.12,1.03L681.08,569.45z" class="st2"/><polygon points="811.5 485.5 817.31 493.25 823.5 501.5 831.5 511.5 837.5 513.5 842.5 511.5 838.5 506.5 831.5 501.5 825.5 497.01" class="st2"/><polygon points="709.91 206.5 717.5 207.5 721.5 209.5 721.5 213.5 725.5 218.5 727.5 223.5 728.5 226.5 731.5 230.5 732.5 227.5 734.5 227.5 735.5 225.5 735.5 221.5 734.5 215.5 733.5 214.5 732.5 208.5 730.5 205.5 729.25 203.79 717.73 205.04" class="st2"/><polygon points="737.5 203.5 738.5 213.5 741.5 217.5 742.5 221.5 743.5 222.5 748.5 234.5 750.5 223.5 751.08 217.5 748.5 210.07 744.5 205.01 742.5 203.5" class="st2"/><polygon points="666.5 228.5 666.5 233.5 667.5 234.5 667.5 237.5 672.5 232.5 677.5 228.5 681.5 223.5 681.5 226.5 677.5 230.5 677.5 232.5 674.5 235.5 674.5 237.5 672.5 238.5 672.5 242.5 676.5 238.5 677.5 235.5 680.5 233.5 679.5 238.5 681.5 238.5 684.5 236.5 682.5 235.5 681.5 231.5 682.5 229.5 684.5 224.5 686.5 224.5 687.5 226.5 689.5 231.5 692.5 234.5 701.5 234.5 706.5 232.5 706.5 228.5 706.5 226.5 707.5 224.5 710.5 225.5 711.5 228.5 712.5 230.5 718.5 230.5 720.5 228.5 719.5 225.5 707.5 219.5 702.5 218.5 694.5 218.5 687.5 220.5 684.5 222.5 686.5 218.5 689.5 217.5 681.5 219.5 678.5 222.5 672.5 228.5 668.5 229.5" class="st3"/><polygon points="723.5 207.5 726.5 209.5 726.5 211.5 728.5 211.5 730.5 216.5 729.5 207.5 726.5 206.5 723.5 206.5" class="st3"/><polygon points="740.5 206.5 743.5 206.5 745.5 209.5 746.5 213.5 748.5 218.5 748.5 225.5 748.5 234.5 745.5 227.5 744.5 220.5 742.5 215.5 741.5 209.5" class="st3"/><polygon points="756.5 193.5 756.5 211.5 758.5 223.5 763.5 227.5 767.5 225.5 763.5 218.5 760.5 207.5 758.5 197.5" class="st2"/><polygon points="772.5 208.5 772.5 218.5 776.5 224.5 775.5 213.5" class="st2"/><polygon points="577.5 243.5 570.5 249.5 568.5 253.5 567.5 258.5 566.5 262.5 573.5 259.5 577.5 258.5 580.5 256.5 580.5 254.5 580.5 251.5 581.5 249.5 583.5 248.5 586.5 251.5 589.5 254.5 594.5 255.5 597.5 254.5 604.5 253.5 603.5 249.5 603.5 240.5 607.5 242.5 610.5 244.5 610.5 246.5 609.5 248.5 607.5 251.5 613.5 251.5 619.5 250.5 622.5 249.5 618.5 244.5 617.5 242.5 620.5 242.5 623.5 240.5 624.5 238.5 623.5 231.5 620.5 232.5 619.5 234.5 618.5 235.5 614.5 236.5 612.5 235.5 607.5 233.5 601.5 233.5 594.5 235.5 590.5 237.5 584.5 238.5 582.5 242.5 574.5 250.5 572.5 250.5 574.5 247.5" class="st3"/><polygon points="558.5 255.5 558.5 243.5 561.5 241.5 563.5 238.5 557.5 239.5 553.5 242.5 552.5 246.5 555.5 247.5 556.5 247.5" class="st3"/><polygon points="563.5 250.5 569.5 247.5 567.5 242.5 563.5 246.5" class="st0"/><polygon points="569.5 238.5 571.5 244.5 575.5 242.5 582.5 237.5 588.5 235.5 598.5 231.5 583.5 232.5 573.5 235.5 573.5 238.5" class="st0"/><polygon points="548.5 236.5 554.5 229.5 557.5 223.5 560.5 222.5 561.5 220.5 571.5 216.5 577.5 212.5 583.5 212.5 588.5 211.5 593.5 209.5 605.5 208.5 608.5 207.5 615.5 208.5 625.5 216.5 632.5 217.5 635.5 218.5 632.5 222.5 630.15 224.5 627.5 224.5 626.5 225.5 621.5 225.5 618.5 223.5 621.5 223.5 625.5 221.5 622.5 219.5 620.5 217.5 613.5 211.5 597.5 211.5 594.5 212.5 588.5 213.5 574.5 219.5 569.5 219.5 562.5 222.5 556.5 229.5 552.5 235.5" class="st2"/><polygon points="529.5 272.5 531.5 267.5 535.5 261.5 537.5 268.5 539.5 269.5 536.5 271.5 533.5 279.5 531.42 289.71 530.5 286.5 532.5 272.5 529.5 273.36" class="st2"/><polygon points="525.5 260.5 529.5 250.5 531.5 241.5 530.5 226.5 524.5 216.5 522.5 205.5 521.5 191.5 523.5 171.5 531.5 156.5 536.5 146.5 538.5 141.5 528.5 155.5 524.5 164.5 517.5 189.5 514.5 192.5 517.5 194.5 516.5 200.5 515.5 203.5 514.5 210.5 517.5 211.5 518.5 215.5 518.5 219.5 521.5 220.5 520.5 226.5 521.5 228.5 524.5 227.5 524.5 231.5 521.5 250.5 522.5 254.5" class="st2"/><polygon points="548.5 128.5 569.5 120.5 593.5 113.5 597.5 107.5 609.5 107.5 633.5 101.5 650.5 98.5 668.5 101.5 689.5 106.5 676.5 100.5 650.5 94.5 641.5 93.5 642.5 95.5 628.5 95.5 622.5 99.5 618.5 99.5 617.5 101.5 615.5 100.5 614.5 103.5 584.5 110.5 566.5 115.5 555.5 119.5" class="st2"/><polygon points="657.5 363.5 655.5 366.5 656.5 371.5 659.5 375.5 661.5 375.5 662.5 373.5 663.5 370.5 666.5 372.5 667.5 373.5 671.5 373.5 672.5 369.5 675.5 372.5 678.5 371.5 679.5 369.5 680.5 366.5 682.5 369.5 685.5 370.5 688.5 369.5 689.5 364.5 691.5 365.5 692.5 366.5 695.5 367.5 696.5 365.5 696.5 360.5 694.5 357.5 691.5 357.5 688.5 359.5 686.5 357.5 685.5 356.5 688.5 355.5 687.5 353.5 684.5 353.5 679.5 353.5 672.5 354.5 661.5 355.5 657.5 356.5 654.5 359.5 650.5 359.5 649.5 360.5 649.5 364.5 653.5 363.5 655.5 362.5 657.5 362.5" class="st0"/><polygon points="670.5 358.5 669.5 361.5 671.5 363.5 672.5 367.5 673.5 363.5 674.5 362.5 672.5 359.5" class="st2"/><polygon points="656.5 221.5 657.5 209.5 660.5 206.5 666.5 200.5 667.5 198.5 674.5 194.5 679.5 194.5 684.5 193.5 691.5 192.5 695.5 191.5 701.5 191.5 704.5 190.5 710.5 189.5 715.5 190.5 723.5 192.5 725.5 194.5 716.5 191.5 710.5 191.5 706.5 192.5 700.5 193.5 693.5 193.5 693.5 195.5 684.5 195.5 676.5 198.5 671.5 199.5 667.5 202.5 664.5 210.5 664.5 214.5 670.5 212.5 675.5 209.5 681.5 209.5 672.5 212.5 666.5 215.5 663.5 217.5 658.5 221.5" class="st2"/></svg>