<svg viewBox="0 0 1366 768">
<style type="text/css">
	.st0{fill:#FFFFFF;}
	.st1{fill:#808080;}
	.st2{fill:#333333;}
	.st3{fill:#F2F2F2;}
</style>
<polygon class="st0" points="623,460 614,456 606,456 601,462 588,470 576,470 560,460 552,450 545,446 533,428 525,412 521,390
	521,372 521,365 515,350 509,333 506,314 508,290 512,266 522,211 531,169 546,142 560,126 575,116 583,112 592,99 603,93 617,89
	623,89 634,83 645,78 659,78 672,76 679,73 689,77 700,77 710,73 727,69 750,69 776,75 801,86 815,96 830,107 849,117 858,124
	874,144 883,161 899,186 905,204 909,223 909,239 906,263 907,287 907,311 909,332 913,349 913,374 910,399 901,412 892,421
	878,441 868,454 860,458 852,470 815,487 779,570 779,640 743,724 596,724 600,581 634,515 627,478 "/>
<path class="st1" d="M651,344l1,2l1,2l2,2h4l1,1h3l4-1l2,1v1h1v-2h2v1l-2,3l1,2l5,5l3,3h7c0,0,6,0,7,0s8-1,8-1l2-4c0,0,1-3,2-3
	s3-2,3-2v-3l2-2l1-3h2l1,1l2-1h2l-1,2l1,1l2-2l1,1l-2,1v3h3c0,0,0-1,1-1s3,1,3,1l-4,2l2,1l2-1l-1,3h2l1-1v1l-1,3l-1,2h2l2-1l-1,2h-2
	l1,1l2,1l-1,1l-2,2h2l2-1v2l-2,2h3v3l2-1l1-1v2l-1,2v3l2-1v2l-2,2l4-2v2l4-1v1l-2,1l2,2l-2,1l-3,2h-2l2-3v-2l-4,2h-2l-2-1v-2l1-1
	l-4,2l-1,2l-2-1v-2l-3,1l-1,1l-1-2h-4c0,0-1,2-2,2s-2-2-2-2l-2,1l-3-1h-2l-2,1l-3-1h-2h-4h-4l-2,1l-1-1h-3l-2,2h-5l-4-2h-4l-3-1h-5
	h-6l-4,1l-2,1h-3l-3,1h-3l-1,2h-2l-2,1l-3,1l-2,2l-2,1l-2,1l-2,1l-3,1h3h5l2,1l-4,2l-3,3l5-2l2-1l1-3l3,1l-1,1l1,2v2l3,2l4,2h3l5,1
	h5l1,1h3l2,2h3c0,0,2,0,3,0s5,0,5,0l2,1l2,1l4-1v-2l-2-1v2l-3-1l-5-1l-2,1l-2-1l-4-1c0,0-2-1-3-1s-5-1-5-1l-5-1l-3-2l-1-2h1l4,2h2h2
	l2,1l1-2l2,2h3l2-1h-4l-5-3l-2-2l3.42-1.2L655,395l2,1l6.15-0.99L664,397l4.05-2.2L671,395l2,2h8l3.66-0.29L687,397h5l4,1l3,1v1
	l-3,1l-7,1l-2,1h6h7l4-1h4l3,1h4h4l5-1l2-1l3-2l4,3l2,1h3l2,2l4,1v-2h3l2,1h1v-3l-3-2h-1h-1v2h-2l-4-1l3-2l4-1l-1-2l4-2l2,3l-2-4
	l-4,1l-1-2l-3,2h-3v-1l1-1l3-1l2-2l3-1l4,2l1,2l-2,2l2,4h1v-5h2v2h3l-1-2v-2l-1-2l1-1l2-2h1l-2,3l2,2l2,1v2l-1,1v3l2,4l-1,3l-2,2
	l1,2l1,1l-1,1l-2-1v2h-1l-1,1l-2,1h-2l1,1l-2,2l-2,2l-1-3c0,0,1-3,0-3s-1,0-1-1s-2-2-2-2v2v2l-2-2l-2-1h-2h-2l-2,1l-2-2h-2l-1-2
	l-1-1l-2-2v3h2v2l4,1v2l2,1l-2,1l3,1h1l3,2v2l-2-1l-2-1h-2l-1-2h-3l-2,1l-2,2l-2,1v-3l-3,1l-3-1l2,2v2l-2-2v3l-3-1v-2h-3h-2v3l-1,2
	l-2,2v-3l-2-1l-1-2l2-1h2l1-2l-2-2l-2,1c0,0-1,1-2,1s-2,0-2,0v-2c0,0,1-1,2-1s2,0,2,0v-2l-3,2v-2l-2,1l-1,1l-2-1l5-3l-6,2l-2,2l-2,2
	v1l-3-2h-2l-1-3l-1-2v3l-1,3l-2,1l-2-3l-2-1l-1,2c0,0,0,2,0,3s-1-2-1-2v-3l2-3l-4,2l-1,2l2,3v3l1,1c0,0,0,2-1,2s-2,1-2,1l-1-2l-2-2
	v2h-3l-1,1l-2,2h3c0,0,0,1,1,1s4-2,4-2l1,1v1l-4,1l-3,1v1h4l-1,1l-3,1l-2,1l3,2l1-2h2v3l3,1h3l1-1l1,1h3l-2-3l2-3v3h1l2,2l2-1h2v-2
	h3l3,1l-2,1l-1,3l3-2h2v2l2-2h2l-1-3l2,1l2,1l1,2l2,1l-2-4l1-1l1,2l3,2v-2l-2-2l-3-2l5,2l1,1l1-1h1l1,2h2l3,2l-1-2l-1-2l1-2l2-2l1-1
	l2-2l-1,3v2l2-3c0,0,0-1,1-1s4,0,4,0l-4-2l1-2l3-2h1l1-2l4,1v3h-3v2l4-1l2,1l2,2h-2h-4l-2,2l-1,1l-3-1c-1,2-2,3-2,3s-2,0-1,1
	s2,1,2,1l1-2l1,2l-3,3l-1-1l-2,2h-2l-1-1l-1,2h2l2,2h2l3-1l-3-1l4-1v-2h3l1-2h1l2,1l2,1l1-1v-3l2-1l-1,4l3,1l-3,1l-1,2h-3v2l-4,2
	l3,1l-3,2l-2-2v3l-4,1l-7,6l3-6l1-2l-3,2l-2,2l-2,2l-5,3v1l2-6l-3,3h-1v2h-3l-2,1l-3-1l-2,2c0,0-3,0-3,1s-1,1-1,1l-1-2v2l-2,2l-5,1
	v1l-1,3l-2,2v-4l-2,2l-1,2l-2-1l-1,1l-2-4l-2,2c0,0,0,2,0,3s-3,2-3,2v-3l-4,4v-5l-2,4l-1-3l-1,3l-2-3l-1,3l-2,2l-1-4l-2,2l-2,1h-5
	l-2-3l-3-2l-3,3l-4-1c0,0-2-4-3-4s-2-1-2-1l3-1l-4-1l-1-1l1-1l-1-1h-3l-1-2l-3,1l-2-3l-2-1h-4v-2l-2-1h-2v-3l-4,2l-3,3c0,0-4,2-5,2
	s-7,0-7,0l-2,2h2v2h-2l-1-1h-5l-1-1h-3l-2,1c0,0,3,0,4,1s4,1,4,1s2,1,3,1s2-1,2-1h2l1-2h2l2,2l5-1l-4,3l-3.97,5.29L601,462l5-6h8
	l9,4l11.19,56.02L631,589l-10,22l4,4l3,1l1-16c0,0,1-5,2-5s3-4,3-4v10v4l1-1l2,5v4v3l3-5l1,3l7,7l2,30l-6,7l-1,7v14l9-3c0,0,0-4,0-5
	s3-2,3-2l1.54-0.93L657,670l-2,5l5-2l4,1l1-6l-2-4l-1-2l3-1l2,1l-1-2l-4-1v-2l3-2l-3,1l-1-3l1-2l1-2l-1-4l1-1h2l-2,2l2,2v2l-1,2l3-1
	l1-1l1,2v2l-1,2l1,3l1,4l2-2l1-1l-3-1v-3l2-1l-1,2l2,1h2v3l2-4l3-1l-2-2l2-2v-3h1l2-2l2,2l2-1l-2-2l4-3l3-1c0,0,2-3,3-3s3,0,3,0
	l-4,3v2l2,2l1-3l5-2l-1-2l1,5l3-3v2l1-1l-2-4l3,2v2v3l-4,4l-2,2l-3-3h-1l1,4l1,2h1l-4,4l2,1l-3,2h-3l-2,3l-1,3l1,3l-1,3l-3-6l-1,3
	l-2,1l-3,1c0,0,0,2,1,2s4,0,4,0l1,5l2-1l2,12c0,0,3-9,2-10s-3-4-3-4l-3-3l5,1l4,3l21-28l26-38l23-38c0,0-1-11,0-12s2-5,2-5s4-4,5-5
	s4-5,4-5l1-5l4,6l-2,3v2l-2,2c0,0-3,2-4,4s0,12,0,12l20-20l-13-15h-5l-1-2h-5c0,0,0-3,1-3s5-4,5-4h3c0,0,1-3,1-4s4.86-8,4.93-8
	s6.07-3,6.07-3l-4,10l-3,4l-3,4l-3,1l-1,4l11,2l50-58l13.26-10.21L851,465l-4-1l3-5l-5,2l-4-1l4-3l3-3l4-5l4-5l-1-1l-4,5l-4,3
	c0,0-2,4-3,4s-6,2-6,2l7-10l2-1l1-2l-1-3l1-3l1-1l3-4l1-1l2,1l2,2l1-3l3-2l-2,5l-2,4l-1,3l3-4l3-3l1-1l1-1v4l-1,3l-1,3v2l3-4l2-4
	l2-3v-3l1,2l1-3l1,5l-3,5l-3,4l-1,2l-2,6l-4,5l-1.67,5l2.67-4l8-4l24-33l9-9l9-13l3-25v-25l-3-56l-4-30v36l-1,11l-2,4l-1,7l-2,7
	l-3,8l-1,1l-1-12v-6v-5v-3c0,0,0-4,1-4s2-4,2-4l-1-3l-5-3l-7-5l-8-7l12,7l4,4l4,1l1-1v-3l1-2l-2-2l-1-3l2-5l-3-1l2-1l-2-8v-9l-1-7
	l-2-6l-3-5l-1-5l-1-8l-2-5l-3-3l3,7v5c0,0,1,0,1,1s-2,1-2,1l-2-3l-1-2l1,7l-3-2l-2-4l3,2l-1-3l-2-3l-6-1h-4l5,3c0,0,0,4,1,4s2,4,2,4
	s3,0,3,1s2,3,2,3v5l-2-5l-5-4l-3-4l-1-2l-4-6l2,7l3,5l2,3l-4,3l-1,1v-4l-2-5l-3-3l1,6v6l-3-3l-2-5l-3-4v2l1,5l-2-3l-3-4c0,0-2-1-2-2
	s-2-3-2-3l-2-1l2,4l3,5c0,0,1,0,1,1s1,3,1,4s1,3,1,3v2l-3-6l-1,1l-1,2l-3-8l-3-6l-4-5l1,6l1,3l-3-5l-1-3l-3-3l4,2l-2-2l-2-2h-3v4
	l2,2v3l-3-5l1,6l1,5l-2,1l-1,4c0,0-1,5,0,5s4,3,4,3l2,4l-1,2l-2-6h-2l3,8v3l4,5l2,7l1,5l1,6l1,4l-3-6l-5-10l-2-5l-2-6l-2-8l-1-4
	l-3-2l2-1l1-3l-4-5l4,2l-3-4l-4-2l-1-6l-4-9l-3-4l-8-4l-6-3l4,5l2,4l1,2l-5-6c0,0,2,4,2,5s4,5,4,6s2,3,3,4s2,5,2,5l4,1l2,5l-2,1
	l-1-4h-2l2,4v1h-2l-2-5v-2l-3-2c0,0-2,0-1,0s3,7,3,7l2,7v4l1,3l1,3h-3l-1-5l-4-4l-2-5l-2-5l-3-3l-2-4l-2-1h-2l-3-2l1,4l2,3l2,4l3,4
	l3,6l3,3l1,2h-3l2,3h2l3,1l2,3l2,2h-4l-4-2l-6-5l-10-7c0,0-6-2-6-3s-4-5-4-5h-2l4,4l4,5l1.26,2.9L768,241v-5l-6-9l-3-1l-5-2l-5,1
	l-5,2l-4,2l-4-1l-4-2l-2,2c0,0-2-3-3-3s-3-1-3-1h-4l4,3c0,0,2,2,1,2s-3,1-3,0s1-2,0-2s-1,2-1,2v3l-2-2h-2l-1,3l-4,4l-1-3l-1-1l-1,4
	l-3,2l-1,2h-4l2,1l-1,2l-3,3l-1,3h1v2l-2,3l-2-1l1,2l3,2l-3,3l4,2l-4,4v5l2,2v3l-3-2l1,5l2,4l3,8v3l2,4l2.8,3.6l1.2-0.6h4v-2l-1-4
	l-2-3l1-3l3,1l5,1l4,1l1-2l1-3l3-3l4-2l6,1l5,2l2-1c0,0-1,3,0,3s4-2,4-2l2,1l2-2v-1l2,1l1,2l-3,1h-4l7,2l4-1l1-2l2,1l-1,3l-1,2l2-1
	l2-1v3l2-2h2l1,1l1-2l2-1l1,2v2l3,2v-2l2,2l1,2h2h2l1,1l-1,3l-2,3l-3,2l-1,2l-2-2c0,0-2-1-3-1s-4-1-4-1l-3-1l-3,1l-3-1h-2l-5-2l-4-2
	l-5-1v1l3,1c0,0,5,1,5,2s5,2,5,2s3,1,4,1s5,0,5,0l3,1l4,1c0,0,2-1,2,0s2,1,2,1s-4,3-3,3s7-3,7-3l2-2v-2l2-1v-2l2-1l1-2h2l2,1l1,2v3
	l-1,2h3h1l-1,3v2l-3-2l2,4v2l-3-2h-2l3,2l-1,2l4-1l-1,2l-4,1h-2l-1,1l3,2l-2,1l-2-3h-4l3,2l3,3h-4h-4l-2,2l-3-1l4,2l1,2h-3l-1-1
	c0,0,1,1,2,2s2,2,2,2h-4l-2-1l4,5h-4l4,1l-2,1v2l-2,1l2,1l1,1l-1,1l-1,1l2,1l1,3l1,1l2,1l-3,2l-2,2l3,2l1,1h-4l-2-2l-2-2l-1-2h-4
	l-1,1l-2-1l-3,1l-1,1h-3v1l-2-2h-2l-2,1c0,0-3,1-2,1s4,1,4,1l1,1l2-1l1,1l3-2h2l1,3l2,1l2-1h1l2,3l-3-1h-4l-3-3h-1l-2,1h-4l-5-2
	l-4-1l-3-4l-5-3l2-1h-2l-4-4l-1-2l-3-1l-2-3l2-1l-1-2l-2-2v-2l-1-3l-2-3l-2-3h-1l-2-2l1-1l-2-2l-1-3l-2-2l-1-2l-1-2l-1-5l-1-1h-3
	l1,2h1v3l1,1v4l1,4l1,3l2,3l2,3l1,4l1,2v7l-4-1c0,0-5,0-5-1s-2-2-2-2l-2-3l-2,1l-2-2h2v-2l-2-4l-2,3l-2-2l-2,2l-2,1l-3,2h-2v3l-2,1
	l-1,3h1v2v2h-2l-1,3l-1,3l-3-1h-1l3,2v2l-3-1l-3-2h-3v-3l1-1v-3l-2.75-3.5L664,334h-3l-6,1l-1,2h-3l-1,2l3,1l2,1l1,3h-3H651z"/>
<path class="st1" d="M608,446l-1,2h-3l-3,1l-4,1l-11,1l-5-3l-10-6l-3-7l-4-6l-5-6l-5-10l1-5c0,0-1-5-2-5s-3-3-3-3l-1-5l-1-3l-1-1
	l-1,3v3l-2-2l-1-4l-2-4l-1-1l-1,1l1,4v3l-1-3l-2-4l-1-2l-1,1v2l1,4l1,1v4l1,4l1,2v3l2,2l1,2h1l2,3v4l-2-4l-2-2h-1l-1,2v2l1,1l1,2
	l2,2v2l3-1l-1-3l2,2v2l-1,1h-2v1l1,3l2,3l1,1v1v2l1,1v3l-1,1h-1l2,2l2,1l1,2v1l-1,2l-4-1l-2-3v-4l-2-3l-1-1l-1,1l-1-2l-1-2v-3h-1v2
	l-3-2l1-2l1-1v-1l-1,1h-2l-3-3l-3-7l-2-6l-1-2l1-2v-2l-1-4v-14v-14v-7h2l1-2l1-1l-1-2l-1-2l1-3v-3l1-2c0,0,0,0,0-2s0-3,0-3l1-2v-3
	c1-1,1-3,1-3v-5l-1-2l2-2l1-1v-7l-2-1l-1,1l-1,4v-5l-1-2l1-2v-3h1h1l1-1l-2-1l-1-2l1-3h2l3-4l1-4l1-1l2,1v-2l-1-2h-2l1-2l1-1l1,3
	l1-2l1-2l-1-3l2-2l2-3l3-2l2-4l3-3h2l-2-2h2l2-2v-2v-2l-1-1h2l1,1v-3l2,3l1,2l1,3v2l3,2l-1-4v-3l1-2l1-1l3-2v-2h-3l3-3v-1l-1-1l-2-2
	h3v-3l1-3l-1-2v-4l3-1l2-1l-2-6l-1-2l-1-2h1l2,3l2,2v1h1l1-3l-2-3l-2-1l4,1l1,2l1,1h2v-2l-1-2l-2-2l1-1h-2l-2-1l-1-1v-1h1l-1-2l-3-4
	l-1-2v-2l1-1h-2l-1-2v-1h1l3,1l2-1l-2-2l-1-1v-2l2-2v-2l-2-2v-1h2v-2l-2-1l-1-1h3h1l-1-1l-1-2l2-1l1,3h1v-2l-1-2v-1h3l-2-1l1-1l1-1
	h2l1-2h1l1-2l1,2l1-1l1-1v-2l-2,2l-1-2l2-1l1-3l-3,2l-3,3v-2l1-2h-2l2-1l1-1v-2h1v3h2v-2l3-2v-1h-2l-1,2h-1v-1l1-1l1-2h2v-2l2-1h1
	l1-1h1v-2h5l1-2l1-1h1h2l1-1l1-2h1v2l-1,1h-1l-2,2l-2,1l-1,1l-1,2v1h1l4-4v-1h2l2-2h2v-1h1v-2h1v-1h2v-1h1l1-2h1v1h1v-1l-1-1v-1h2v1
	h2c0,0,2,2,2,2s2,1,2,1l1,1h2v-1l-3-1l-3-2l-2-1v-1l-1-2h1l1,1h2l-1-1l-2-1h-3l-1-1v-1l1-1h-1v-1l-1,1h-1v-1l2-1l1,1h1l1-1h1l1,1
	l1,1l3,1l5,3h2l1,1h1l-1,1v1h1l1-1h1l1,1v1h1v1l-1,1v1h1v1h-1v2h-1l-1,1h-1v-1l-1,1h-1v1h1v1l-1,1h-1v1h-2v2c0,0-1-1-1,0s-2,2-2,2
	h-2l-2-3h-2l-2,3h-2v3l-2,3l-3,4v2l-2,2v1l-1,3l1,1v1l-1,1h-1v1l-2,2v1l-2,1v2h-1v1h2v3l-1,3l-1-1h-1v2l1,1v2l-1,2v2l-2,3v1l-1,2
	l1,1v2l-1,1l-2,2v3l1,1v2l-1,2v2l-1,3v2l-2,10l-3,3l-2,2l-2,4l-1,3l-1,7v8l1,4l1,5l1,3v1h-1l-1-3l-1-2v-3l-1-2h-1l-1,4v2l-2,4l-1,6
	l-1,5l-1,4l-1,17l1,5l-1,3l-1,2l-1,2v1l-1.69,2.64L568,336h3l2,4l2,4l1,2v3h-2l-3-1l-3-2h-3l-1,2l2,2l2,4l1,3v2l-1,2l1,3l0,0l-6,2
	l1,6l1,1l1-2v-1l2-1h1l3,2l1,2h1v1h-2l-2-2h-1v2l2,2h1h2l1-2l1,1l2,2h1v-1h1v2h1v1l1,1v3h-1v-1h-1v11l-1,2l-1,1l-1,1h-2l-1-2l1-2v-2
	h1v1h1l1-4l-2-2v-2l-1-5h-1l-1,2l1,2l-1,1l-2,1v2l-1,3h-1l-1-1l-1,2l1,3l2,2h3l2,2l1,2h9l8,7l3,10l2,6l2,5l2,5l3,6c0,0,1,5,2,5
	S608,446,608,446z"/>
<polygon class="st1" points="679,267 677,268 675,272 673,275 671,277 671,279 670,280 669,282 667,285 668,288 667,289 665,291
	664,294 663,292 664,289 666,287 666,285 664,285 663,286 661,286 663,284 664,282 664,281 666,279 665,277 662,277 659,278
	654,278 650,277 647,278 643,277 641,275 639,276 638,277 635,276 633,277 632,278 631,278 632,276 633,274 630,274 628,276
	627,276 624,274 622,274 620,276 618,276 617,277 617,274 618,273 615,273 613,275 610,275 608,276 608,278 607,279 605,281
	608,282 611,282 611,284 609,283 608,284 605,283 603,284 600,284 603,282 601,281 596,281 591,279 599,279 602,278 601,277
	595,276 593,274 596,273 599,273 602,275 603,275 601,272 599,269 601,264 603,261 606,258 608,256 612,254 612,252 612,249
	615,248 617,247 614,246 618,245 619,245 622,244 625,243 628,242 631,241 632,240 633,241 636,241 638,240 640,240 644,242
	646,242 650,243 652,244 656,246 659,248 661,250 664,251 665,252 666,254 664,253 662,253 664,254 664,256 662,255 660,254
	657,253 653,252 650,252 651,254 654,256 656,255 658,256 657,257 655,258 657,259 659,259 660,260 664,261 666,263 666,260
	663,259 663,257 665,257 665,258 668,258 668,259 669,260 669,263 672,262 672,266 672,268 671,271 672,271 673,269 675,268
	676,266 678,266 "/>
<g>
	<polygon class="st2" points="615,252 620,249 624,247 627,246 631,245 635,245 638,244 641,244 646,245 649,246 652,248 652,251
		651,251 651,250 648,250 648,248 643,247 643,248 634,248 635,249 639,249 646,251 648,252 648,253 646,253 640,251 635,251
		630,253 625,255 623,257 629,255 635,255 637,254 641,255 645,257 648,259 649,259 651,257 651,259 654,262 655,263 657,263
		659,264 659,266 657,266 657,267 659,267 659,269 661,271 661,273 664,275 663,276 660,276 660,277 655,277 648,274 639,274
		638,273 636,275 635,275 634,273 632,273 631,273 627,272 624,273 623,273 623,272 625,271 622,271 622,272 621,273 619,273
		619,271 617,271 617,272 615,273 612,273 612,272 611,272 610,273 609,274 606,276 605,276 605,275 608,272 607,271 605,271
		605,272 604,272 604,273 602,273 602,272 603,272 603,270 604,270 604,268 605,268 605,265 607,265 608,264 609,264 609,262
		608,262 608,260 612,260 613,259 614,258 615,258 615,255 617,255 617,258 618,257 620,255 622,255 621,254 619,254 619,255
		618,255 617,254 618,254 618,253 619,253 619,251 618,251 618,252 	"/>
	<path class="st2" d="M706,290h-1l-1-1v-3l-3-5v-12l-1-2l1-2l-1-2l1-3v-2l4-3l3-3l7-3l6-2l3-1h2v-1l-1-1h-1v1h-4v-2l-1-1v-1l1-2
		l-1-1v-2l2-1v-1h1l1-1l1,1h3l3-1l2-1l2,1l4-1h1l3,1l1,1l2,1h1v-2l-3-1h3l2,1h3l2-1l4,1l4,1l2-1l3,2l8,7l4,4l5,4l5,4l6,4l9,4l4,2
		l-1,1h-3v2h3l2-2h1l-1,2l1,3l4,6l6,11l1,4v6l3,9l1,1l-2-8v-5l-1-2v-1l3,2l1,2v-9l1-1l-2-3h3l-3-4l1-3l-2-3v-1l2,1l2,3l-1,2l2,1l1,4
		v3l3,3l4,5l2,7l3,9h1l-3-10v-2l2,1l1,5l2,2v-1l1-6l1,2l1,2v3l1,2l2,2l2,2l2,1v-3l-4-3l-1-4l-2-4v-2l4,5l2,3h2l-2-3l-3-5l-2-2v-2
		l-1-3v-4l-2,2l-1-5l-3-5l-1-3l-2-2v-1l2,1l2,2l1,1l1-1l-2-3l-2-4l-3-3v-2l1-2l-2-3l-2-4l1-2l-2-1v-2v-4l1,4l1,2l1,2v1l1,1l1,2l1,2
		l1,2h1v-3l-2-3h4l1,1l1,2l-1,1l-1-3h-1v3l1,2l1,1l-2,3l1,2l2,3l2,4l1,2l1-2v2l-1,2l1,3l2,2v2l1-1l1-1v2l-1,2v2l3,6l1,3l2,5l2,4l1,3
		l4,3l1-1l-3-2l-1-2l1-1l-1-2l-3-7v-4l-2-5l-1-4l-1-2v-2h1l-1-3l-2-2v-2l3,3l3,4v3l3,2l1,2h-2v2l1,3l1,2l2,3l1,4v2l1,1v3l1,2v2l2,4
		l1,1v-5l2,2c0,0,0,2,0,3s0,4,0,4l2,2l2-3l-2-4v-3l2-3v7l1,1v3h3v-3l1-3l2,2l-1,3l-1,1l2,1l-2,2h-2v3v3v3l-2-1v2v4l2-2l1-3l1-1l2-3
		l1,3l-1,6v3l-1,3l-1,7h-2l-4-2l-3-2h-2l2,2l4,3l3,3c0,0,2,1,3,1s3,2,3,2h2v-1l-3-3l-1-1h2l-1-2v-1h2l2-3l1-1v7l-1,3v4l1,1l-1,1
		l-1,3v2h1l1-4l1-3v-5l2,2l-1,3l1,1l1,7l-1,5l-3,2l3,1v5l-1,2l1,2l-1,6l-1,2l-1-2l1-4l-1-3l-2-2v5l-1,5v-3l-3,3l-0.52,1.03L883,393
		v4l-1,7l-3,5l-2,3v-4l2-4c0,0,0-3,0-4s1-2,1-3s0-3,0-3l-3,6l-3,3l-2,2l3-1v3l-3,5h-2l1-5v-2l-3,5l-4,5l-2,3l-1-1l-1,2l-3-1l-3,5
		l-2,5l-2,3l-1-2l-3,4l-2,5l-3,2l2-7l1-5l2-3l1-6l2-6l1-6v-2l1,5h1l1-4l-2-3v-4l1-2l1-8l-1-4l-1-2l-1,8l1,3v2l-2-1l-1,2l-2,7l1,2
		l-2,3l-2,4l1,3l-6,8l-1,6l-3,4l-1,2h-3l-3,3l-1,2h-1l1-3l2-4l2-3l2-6l2-4v-2l-1,2l-2,3l-2,4l-1,4l-2,3l-2,1l-1,3l-4,5l-8,8l-7,5
		l-4,2l-5,2h-3l-2-3l-1-3l1-5l2-2l2,1v3l1,1l3,1h1v-2l-2-1l1-1v-2h-2v-1h1l-2-3v-1l2-3h1l1,1l-1,2h1v-1h1v3l2,1h1v-3l-2-4v-1h-2v-2
		h-1v1h-2l-1-3l-1-2l-2-1h3l-2-4h-3l-2,3l-7,10l-1,3l-1,2h1l-2,1h-1l-1,3l-1,4l-1,3h-3l-1,2h2v3l-2,2v3l-1,3l-2,6l1,2v3l-1,1v4h1v-2
		h2v2l2-2l2,1l1,2v1h-1l-1-1h-1l-2,1v2h2l3-1l1,1l1-2h1l1,2l1-1l2-2l1,1l2-1h1l-1,2v1h2v1l-1,1v2h-3v-5h-1v3l-1,2l-1,1l-1,1l-1-2v-2
		l-2,1v1l1,2v1l-2,2h-3l-1,1v-2l2-1l1-1h-6l1-2v-2h-1l-3,4l-2,1l1-3l2-2l1-3v-1l-3,4l-2,3l-2,4h-1v-2l1-1l-1-1l-1,2v2h-2v-3h-3l-2,1
		v4v3h2l1-3l1-1l1,1v1c0,0-2,3-2,3s0,1,0,1s-1,2-1,2l-1,1l1,1l-1,2l-2,2l-1,1l-1,1v1l-2,2l-1,2h1l1-1h1l1-2h1v-3l1,1v1h2v2l-2,1v2
		h-2v1l-2,2h-2v1h-2l-1,1l-1,2l-1,1l-3,2h-2l-2,2l-2,2l-1-2l-2,2l-2,3l-3,1l1,1h2v2l2,1l2-2l2-2l2-4h2l1-1l1,2l-2,3l-3,3
		c0,0-2,1-2,2s-1,3-1,3h2l1,2c0,0-1,1-2,1s-2,2-2,2h-2l-1-1v4l2,1c0,0,1-1,2-1s2-2,2-2l1,1l1,1l2-1l2-3l2-1l1-2v-1h4l1-3v-3l2,1v1h1
		l1-2v-3l1-2v-5l2-2l1,2l-2,1v2v1l3-3c0,0,1-2,1-2s0-1,0-1h2l-1,4l-2,2l-1,1c0,0-2,1-2,2s-1,2-1,2v1h2l2-2l1-1v-2l2-1l1-2l1-2h2v2
		l-2,2l-1,1l-1,2v1h1l2-2l2-3h2v1h-1v2l-2,1l-1,3h-1l-1,1l-1,1v1l-1,1v2l-1,1v-3h-2h-1l-2,1h-2v1h-1l-1,1l-1,1l-2,1l-1,1h-2l-1,1v2
		l-2,1v2h-2l-2,3l-4,3v1l3-1l1,2h2l1-1l2,2l1,2v2l-2,1v-2l-1-1l-2,1l-1,2v2l-2,2h-1l1-2v-2l-2,1l-1,1l1,1v1h-2l-1-2l-1,2l1,2l-2-2
		h-2l1-3v-2l-4-2l-1-3l-3,1v3v2l-3-3v2l-1,1l1,3l-3,5v4l3,1l1,1l-1,1l-2,1v3l2,1l-2,3h1l3-1h1v1l-3,2c0,0,0,0,0,1s4,1,4,1h3l-1,1h-3
		v2l-3-2l-1-1h-1l-2-1l-2,3l-1,1h-2l-1,2v2l-1,1l-1,2l-1,1v1l3-1l1-2h3l1-1l1-2h1v-1l1-1l2,1h1l1,2v1l-2,1l-1-1l-1-1h-1v1l-1,1h-1
		l-1,1v1l2,1h3v1h1v1l-1,1h-2l-2-2v-1h-2h-2l-1,2l1,1v1h-4v1h1l1,2v6h-1l-2-1h-2h-3v1h-2v-1l1-1h1v-2l-1-1h-1v1h-1v-1h-1l-1-1h-1v3
		l-1,2l-1,2h1c0,0,0-2,1-2s2,0,2,0v1h-2v1l-1,1h2l1-1h1v2l-1,1v1l1,1h-3l-1-1h-1l-1,1h-2l-2,1l-1,1l-2,1h-1v-1h1c0,0-1-2,0-2
		s1,0,1,0v-1h1v1h1l2-1v-3h-1v-1h1l-2-1h-2v-1h3v-1h3v-6h1v-1l1-1v-6h2v2l0,0l1,1v1h2l1-1l-1-1h-1v-1h-1l-1-2h1v-1h1v-1h-3l-1,1v-2
		h-1v-1h1v-3h1v-1h-1v-1h1v-1h1v1h1v1h-1v1l-1,2h2v-2h2v1l1,1h1v-1l-1-1h1v-4h1l1,1h1v1h1v1h-1v2h-1v2l1,1h1l1-1h2l1,1v-1l1-1v-1h-1
		v-1h-1v1h-2v-1h1v-1h3v1h2v-1h1l1-1v-1h2v-1l-3-2v-1h-3l1-1h3v-1h-4l-1,2h-1v1h2l2,2v1h-2v1h-1l-1-2h-1v1h-1v-3l1-1v-1l1-1v-2h3v-1
		h3v-6h-2v-2l2-1h1v-3h1v-1l-3-2h-2v3h1v1h-2v4l-3,1h-1v2h-3v1h-1v-2h-1v-1h2v1h1v-2h3v-1h-1v-1h-2l-1,1h-3v-1h2v-1h1v-2h1v1h4v1h1
		v-4l-1-1v-1l-3-2l-3-2h-3v-2h-1v-2h1v-1h1v-3h-1v-2l-2-1v-1h-1v-2h1l1,2h2v-3h-2v-1h2v-1h1v-1h-1v-1h-1v-2h1v-1h-1v-3h1v-3h-1v-1
		h-1v1h-2v-2h1v-2h1v-1h1v-1h1v-2l-2-2h-2l-2-1v-1h1v-3h-1v-1h1v-3h2v-1h-4v-1v-1h1v1h1v-1h1v1h1l1,1v-4l-1-1v-1h1l1-1v-1l-1-1l-1-1
		h-1v-1l2-1h1v1h-1v1h2l2,2v1l3,2v1h-1v3l2,1h1v1h-1v12l1,1v2l3,2l2,1v1h1l2-2v-2l1-1l-1-2l2-1l-1-1v-2h1v-1h-1v-6l1-1l-1-4h-1v-2
		l2-1l1-1h2l1-1v-1h-1v-2h-1v-2h1v-2h2l1-2v-3l-1-1h-1l1-2v-2l1-1l-1-3l-2-1v-2h-1v-2l1-1v-2l-2-3v-2l-1,1h-4l-1,1h-2v-1h1v-1h-1v-2
		l-1-1h3l1-1l-2-1l-1-1l1-1l2,2h1v-2h3l1-1h3l2-2l-1-2h2h4l-1-1l1-2h1l1,1h1l-1-3v-1l2-1h1l-1,2l1,1l1-1h1l1-1h1v1h2v-1l-2-1v-2h-2
		v1h-1v-2h3l1-1v1h2l1-1h1l-2,2h-1v2h1l1-1h1v2l1-1v-1l-1-1v-1h4l2,1l2-1v-2h1l1,1l1-1l-1-2l1-1h2l1-3l-1-1v2h-1l-1-1h-1v-2h3h1
		l-1-2h-2l1-1h1l1-1h1v1h1l2-2l1-2h1v-2h1v-1h1v1h1v1h1l2-1v3h1l2-2v-2h2l2-3l3-1l1-3l2-2l2-3l3-2l2-3v-2l-1-2l1-1l1,2h2v2l-1,2v2
		l4-4l3-1l-3-1v-2l2-1v-4l1-1l1-1v5h1v-4h1l2-1h-2v-2v-2l2-1v-2l-2-1l1-1l2-4h2l1,1h1v-1l-1-2v-1l1,1h1v-2l-1-2h1v-1l-2-3v-7l-1-2
		v-3l1,1v1h1v-2l-2-2h-1l-2-2h-1v-4l2-1v-3l-1-1h-2l1,1h1v1h-1v2h-1l-1-2l-1,1h-1v-4l2,1v-2l-2-2v-1h3l1-1l-1-1l-1-1h1v-3l2-2h1v4h1
		l1-2l1-3v-4l4-6v-1l-1-2l1-2l1-9l-1-12l-1-5l-2-5l-5-3h-4l-2-2l1-1h-2l1-5v-4l-1-1l-3,4c0,0-1,1-2,1s-4-1-4-1h-1l1,1c0,0,1,1,0,1
		s-4-2-4-2l-1-1v-1h-3l-3,3l-2,1l-3-2l-2-2l-1-1h-1c0,0,1,0,0,1s-2,0-2,0l-2-1l-6-1c0,0-6,0-7,0s-6-1-6-1l-9,1l-7-1l-4-1h-3l-2-1
		l2-1h1v-1h-5l-2,3v1v4h-1l-1-4v-1v-7l2-2l-1-2l1-1l1-2l2-2l1-1h-1v-1l1-2l2-2l3-1h4l5-3l2-2h-5l-1,1l-2,2l-2-1h-2l-2,1c0,0-1-1,0-1
		s2-1,3-1s2,0,2,0l1-1h2l1-1h3l1-1h4l3-1h14l7,1l2,1l4,2l2-1h2v2h2l2,2h4l-1-1h-2l-2-2h2l3,2h2v2h1v2v1l-1,3h1l2-3h2l1,1l-2-3l3,1v1
		l1,1l1,1l3,3l1,2v2l1,1h1v-1l-1-2h1v-2h-2l-4-5l-3-3l-6-4l-5-2c0,0-5-1-5-1s-6-1-6-1s-6-2-6-2h-15l-10,1l-6,2l-4,1l-7,3l-4,3l-3,2
		l-1,10l1,6v6l2,4v3L706,290z"/>
</g>
<path class="st2" d="M569,430l2,6l5,5l6,6c0,0,3,2,4,2s5,0,5,0s1,0,2,0s5,0,5,0l2-1l-12-12l-1-3v-3l3,3l10,11l2,3h4l1-2l-7-13l-4-11
	l-4-15l-2-7l-2-4h-3l-6,6l-4,1l3,1l-1,5l-3,5l-1,5L569,430z"/>
<polygon class="st2" points="563,408 563,414 564,418 562,418 562,420 564,421 564,424 567,426 567,422 567,418 566,414 "/>
<polygon class="st2" points="573,406 573,411 571,408 "/>
<polygon class="st2" points="570,416 570,413 569,406 567,411 566,414 568,414 "/>
<polygon class="st2" points="627,393 630,395 632,393 640,393 648,393 656,394 671,395 687,397 695,396 704,398 708,398 714,400
	716,401 729,398 739,398 736,395 733,394 734,390 728,391 722,390 718,388 710,386 704,385 696,384 692,383 684,384 686,386
	685,388 682,391 678,391 674,391 674,390 671,390 659,392 648,391 645,392 640,391 638,389 636,389 633,389 630,391 "/>
<polygon class="st2" points="653,345 657,349 661,349 659,346 656,346 "/>
<polygon class="st2" points="656,336 658,340 661,342 662,345 665,345 667,342 669,343 669,340 666,337 663,335 659,334 "/>
<path class="st2" d="M685,339l-1,4l2,3l2,3v1l-1,2l3-1l2,1l4,1h5l6-2l2-3l-1-1h-5l-2-1v-3c0,0-1-1,0-2s0-2,0-2l-3-3h-8L685,339z"/>
<polygon class="st2" points="712,323 715,328 717,327 715,324 713,322 "/>
<path class="st2" d="M572,399l-3,2l-4,1l-6-3l2-1l-2-2l-1-3v-6l1-2v-3l-2,1l-2-6l-1-5l-2,6l-1,3l-1-6v-7h-2v-7l-1-1v-23v-5l1-2h1v-6
	h2v-10h1v-5h-1v-4h1v-2h1v-4h2v-1h1v-1h-1v-1h-2v-1h-1v-1l2-4l1-4v-2l1-1v-3l2-1v4h1l1-2l1-2l-2-2v-2l2,1v-2l-2-3v-2l1-2l2,5l2,2
	l1,3l2,1v-3l2-1l1,2l1,1l3,1l-2,2h-5l1,1l2,1l2,1l3-1l1-2l-1-1h2l1-1v3l-2,5l-2,1l-3,2l-3,1l-3,1l-1,1l-1,2l2,1h1l2-1l2-1l2-2l1-1h2
	v2l-2,2l1,1l-2,1l-2,1v1l1,1v4l-1,14l-1,2h1l1,6l-1,7v5l1,3l2,2l1,2l1,2v1l-1,1l-6-4l-2-1h-2l-2,2v3c0,0,0,0,1,1s2,3,2,3s2,2,2,2
	l1,2l-1,3l-1,2l1,4l-1,2l-2,3l-1,3v6l-1,2l1,3l1,2l1,4l2,5l3,2l1,1L572,399z"/>
<polygon class="st2" points="572,273 572,275 575,275 575,277 576,277 576,275 575,274 574,274 574,273 "/>
<polygon class="st2" points="566,268 566,271 565,270 565,268 565,268 "/>
<polygon class="st2" points="569,265 569,267 571,267 571,269 572,269 572,270 573,270 573,271 575,271 575,273 577,273 578,274
	579,274 579,273 578,273 578,270 575,270 575,269 574,269 574,268 573,268 573,267 571,266 570,266 570,265 "/>
<path class="st1" d="M619,231l-7,6l-3,1l-2,1l-1,1h-3l-2,4l-2,2l-1,3v3h2l4-3l8-8v-2l2,1l2-1l-1-1l1-1l9.11-3l4.89-2l4,1h4l5,2h3
	l4,2l3,2l4,1h3c0,0,2-1,2-2s0-5,0-5v-3l-2-2l-3-1l-2-1l-6-1h-5h-5l-8,2l-5,2L619,231z"/>
<polygon class="st2" points="582,271 579,271 579,269 576,269 575,268 575,267 574,267 573,266 572,266 572,265 571,265 571,263
	570,263 570,261 572,261 572,263 573,263 573,265 575,265 575,264 574,264 574,263 575,263 575,262 574,262 574,261 573,261
	573,260 572,260 572,258 571,258 571,256 570,256 570,255 572,255 572,256 574,256 574,255 573,255 573,254 572,254 572,253
	571,253 571,252 570,252 570,250 571,250 571,251 572,251 572,252 573,252 573,250 576,250 576,251 578,251 578,250 577,250
	577,249 574,249 574,248 573,248 573,247 574,247 574,246 575,246 575,247 577,247 577,248 578,248 578,249 580,249 580,250
	581,250 581,251 582,251 582,250 581,249 580,248 580,247 578,247 578,246 576,246 575,245 575,244 573,244 573,243 574,242
	575,242 575,241 577,241 577,240 581,240 581,239 584,239 584,238 579,238 579,239 577,239 577,238 579,237 579,235 581,235
	582,236 583,237 584,237 584,236 583,236 583,235 582,235 581,234 580,234 580,232 582,232 582,233 583,234 584,234 585,236
	586,236 586,237 585,237 585,238 586,238 587,237 589,237 589,236 590,236 590,237 592,237 592,236 597,236 597,235 603,235
	603,234 614,234 614,233 617,233 617,234 629,234 629,235 636,235 636,236 641,236 641,237 644,237 644,238 648,238 648,239
	650,239 651,240 653,240 653,241 656,241 656,242 658,242 658,243 659,243 659,244 661,244 661,245 663,245 663,246 664,246
	664,247 666,247 666,248 667,248 667,249 668,249 668,250 669,250 669,251 670,251 670,252 671,252 671,254 672,254 672,255
	673,255 673,256 679,256 679,258 681,258 681,259 674,259 674,257 673,257 673,258 674,260 673,260 673,262 672,263 672,266
	671,266 671,270 670,270 670,274 669,274 669,277 668,277 668,278 667,278 667,279 666,279 666,278 667,276 667,275 668,275
	668,272 669,272 669,269 670,269 670,265 671,265 671,257 670,257 670,254 669,254 669,253 668,253 668,252 664,249 660,246
	656,244 649,241 643,239 635,237 626,236 610,236 601,238 596,240 590,243 585,250 583,258 582,266 582,270 "/>
<polygon class="st2" points="643,230 647,232 649,235 652,236 654,238 656,237 658,236 658,232 656,230 653,229 649,228 646,227
	644,227 "/>
<polygon class="st2" points="582,228 583,230 587,233 589,234 591,234 591,231 592,231 592,230 591,230 590,229 589,228 589,226
	591,226 591,223 588,223 588,222 585,222 585,223 587,224 587,225 585,225 583,226 583,227 582,227 "/>
<polygon class="st2" points="588,221 592,221 592,219 590,219 591,218 591,216 593,215 591,215 590,216 590,217 589,218 588,218 "/>
<polygon class="st2" points="589,179 587,179 587,181 588,181 "/>
<polygon class="st2" points="586,185 586,188 585,189 583,191 583,192 582,191 582,189 584,188 584,187 582,187 584,185 "/>
<polygon class="st2" points="589,198 585,204 585,201 586,200 586,199 587,199 588,198 "/>
<polygon class="st2" points="584,204 584,206 583,208 580,208 582,207 583,206 "/>
<polygon class="st2" points="655,258 653,257 651,255 649,255 649,254 652,254 654,256 655,257 "/>
<path class="st2" d="M402,724l5-10v-10v-9l7-11l3-19c0,0,1-5,2-7s3-20,3-20s3-29,5-31s14-30,14-30l14-28l19-19l17-9l15-2l26-2l35,2
	l34-2l15-2l11-2l5.3-2.52L634,515l3,16l3,20l3,9v10l-9,11v6l-3,6l-4,6v15v13l1,4l2-11l2-3l1,4l-2,9v7l2,8l4,8l6,3l3-4v-8v-3l-3-5
	l1-5v-4h-3l-1,4l-2-5l-2-3l-1-3l3-3l3-3l1-2l-1-3l-3-2l-1-3v-7l1-3l3-1l1-1l2-1l3,2l2,2l2,6l3,6l1,8l3,19v7l-1,8v6l-1,4v4l1,3l1,1
	l-1,2l-1-2h-1l-1-1l-1,1v-4h-2v-3h-2v-4l-3,1v1l1,2h-2v2l1,1h2v1h-3l1,1l1,1h1v1l-1,1h-2v3l2,1v-1h1v-3h1v2h1v2h-2v1h-1v2h-2v2h1v-1
	h1l1-1v2h2v-1h1v-1h1v-2h-1v-1h1l1,1v2l-1,1v1v1h1v2h1v-1h3v1h1v2h-1v-1h-2v1h-1v2h1v1h-2v2l1,1h1v-2h2v-1h1v-1h-1v-1h3v-1h1v2h-1v2
	h1v3h-1v1h2v-2h1v-1h1v-2h3v-2h1v1h1v-3h2v2h1v1h-1v1h-2v1h-1v2h1v1h-1v1h-1v2h2v-2h2v-1h1v-2h-1v-1h2v-1h1v-1h2v-3h2v2v2h-2v1h-1v1
	h1v3h-1v1h-1v1h1v1h1v-2h1v-1h1v-2h1v-2h1v-2h3v-3h1v-2h2v2h-1v1h1v2h-1v2h-1v3l-2,1v2h2v-2h2v-2h1v-3h1v-2h1v-2h1v-2h1v-1h1v-1h1
	v-1h-1v-2h1v-1h2v-1h-1v-1h1v-2h1v-2h1v-2h1v-1h1v-2h1v-2h1l6-10l5-10l5-7l2-4l2-4l3-4l6-8h1v-3l-2-1h2v-2l2-2h-2l1-2h2l1-1h-2l1-2
	h3v-1l-2-1v-2l6-4l1-2v-2l-1,1h-2l-1-1v-1l1-1v-3h-1v2l-2,1v-3l2-1v-3h3l3-2c0,0,2,0,2-1s1-1,1-1h2l1,2h1v-2h-1l-1-1h2l-1-1h2l2-4
	l1-1v-3h2l3,2v2l2-1c0,0,1-3,2-4s4-6,4-6l2-1h4l2-1h3l1,1l1-6l1-2l1-6l-2-6l-3-1l2-1l5-8l6-11l2-7l1-3l1-3v-3h-2l-9,13l-3,4l-10,11
	l9-12l2-5l3-3l4-6v-3l3-3l1-4l1-5l2-1l-3-2l4-1l1-3l2-2h-7l4-2l-2-2l-3-4l-6-2l-6-2l-5-2l-4-1l6-1c0,0,10,4,11,4s11,1,11,1s7,0,7,0
	s5-2,5-2l4-2h2v3h1v1h-1l-2-1v1l-3,4l-2,2l-5,2l-3,1v1c0,0,2,0,3,0s6-2,6-2l6-5l2-1l2-3l2-2h2v-1h1v2h-2l-1,2l-2,2l-3,3l-4,2v1h2
	l5-4l2-2v-1h1v-1l2-1l1-2h2v-1h1l1,1l1-1h2l1,3h1l1-1l3-1v2l-1,1h3l1-1h4v2h1l2-2l1,7l3,6l14,12l18,9l7,5h10l10,1l9,5l3,1
	c0,0,5,1,7,2s0,1,4,2s7,1,7,1s3,1,6,1s10,0,12,0s12-1,14-1s9-1,12-1s17-1,17-1l16-1c0,0,10,1,16,3s20,13,20,13l16,18l7,17l7,15l4,17
	l4,6v17l-5,16l-5,7v7l-2,12l-1,20l1,13v15l-1,14H402z"/>
<polygon class="st2" points="743,371 746,373 747,374 748,373 748,371 747,372 746,371 744,370 743,370 "/>
<polygon class="st2" points="746,376 748,376 748,378 750,380 751,382 752,385 753,388 753,391 755,391 755,390 754,390 754,386
	753,385 754,385 754,382 752,379 751,378 750,376 752,377 752,376 751,375 749,375 746,375 "/>
<path class="st2" d="M761,375c0,0,2,3,2,4s3,3,3,3h1l-2-4l-2-2L761,375z"/>
<polygon class="st2" points="771,372 772,377 772,384 773,387 774,387 775,385 774,381 775,380 774,376 773,373 "/>
<polygon class="st2" points="786,368 787,370 786,372 786,376 788,377 789,375 788,374 790,374 792,375 791,372 792,370 790,371
	788,369 789,368 791,367 787,367 "/>
<polygon class="st2" points="790,377 788,379 786,381 788,381 790,379 791,379 791,377 "/>
<polygon class="st2" points="680,256 684,259 689,259 690,258 687,256 681,256 "/>
<polygon class="st2" points="697,258 696,261 698,263 699,261 699,258 "/>
<polygon class="st2" points="708,294 708,297 706,297 706,295 707,295 707,294 "/>
<rect x="705" y="293" class="st2" width="1" height="1"/>
<polygon class="st0" points="633,261 634,261 634,260 635,260 635,262 633,262 "/>
<rect x="636" y="260" class="st0" width="1" height="1"/>
<polygon class="st0" points="636,263 636,264 637,264 637,265 639,265 639,264 638,263 "/>
<polygon class="st1" points="621,252 622,254 623,253 627,252 630,251 633,250 631,249 627,249 622,251 "/>
<path class="st1" d="M727,519l-3,4l-2,4h1l2-1l1,2l2,1l2-2c0,0-1-3,0-3s3-1,3-1l4-2c0,0,2,0,2-1s0-2,0-2h-2l-1,1l-2,1l-2-1h-2H727z"
	/>
<path class="st1" d="M742,507c0,1-1,3-1,3l1,1l1,1l1-1v-1L742,507z"/>
<polygon class="st1" points="740,513 740,515 741,515 741,514 "/>
<polygon class="st1" points="748,507 748,510 750,509 751,507 751,505 749,506 "/>
<polygon class="st1" points="741,499 742,500 743,502 744,503 744,501 742,499 "/>
<polygon class="st1" points="744,491 744,493 742,493 742,491 744,490 "/>
<polygon class="st1" points="751,492 753,494 755,494 755,493 753,492 "/>
<polygon class="st1" points="756,482 755,483 756,485 757,483 "/>
<polygon class="st1" points="766,467 764,469 763,471 765,473 766,471 767,469 "/>
<polygon class="st1" points="831,391 827,394 827,396 824,396 822,399 818,401 815,406 813,410 814,405 816,402 820,397 815,401
	812,407 811,413 812,416 810,412 810,406 812,402 816,398 817,395 813,398 811,402 808,407 807,409 810,401 812,396 815,395
	818,391 819,390 822,390 822,387 823,387 825,389 825,390 829,390 "/>
<polygon class="st1" points="860,379 858,386 859,389 860,389 861,386 861,382 861,378 "/>
<polygon class="st1" points="858,396 857.62,397.92 857,401 859,398 859,396 "/>
<polygon class="st1" points="852,412 851,416 851,419 852,417 853,416 854,415 853,413 "/>
<polygon class="st1" points="862,348 860,365 860,368 861,371 862,361 863,359 863,349 "/>
<polygon class="st1" points="859,373 858,377 858,378 860,375 860,374 "/>
<polygon class="st1" points="857,327 862,333 865,334 868,337 869,339 869,335 866,333 864,331 862,330 859,328 "/>
<polygon class="st1" points="866,338 867,340 869,341 867,339 "/>
<polygon class="st1" points="881,371 884,374 886,374 888,375 888,373 884,371 "/>
<polygon class="st1" points="886,377 886,383 887,382 887,380 888,379 888,377 "/>
<polygon class="st1" points="852,378 852,381 854,385 853,380 "/>
<polygon class="st1" points="716,270 717,267 718,264 720,262 722,260 723,260 721,264 719,266 719,267 722,265 725,264 725,265
	722,267 720,268 718,269 717,271 "/>
<path class="st1" d="M721,270l-2,2l-1,2l-1,2c0,0,0,0,1,0s3-2,3-2v-2V270z"/>
<polygon class="st1" points="722,271 722,274 723,274 725,273 725,272 724,271 "/>
<polygon class="st1" points="732,275 731,277 733,278 733,277 "/>
<polygon class="st1" points="757,266 754,264 753,263 754,262 755,263 758,265 758,266 "/>
<path class="st1" d="M751,263c-1,0-3,0-3,0v-2l2,1l1-1V263z"/>
<polygon class="st1" points="746,262 740,263 738,263 736,264 735,264 735,263 736,262 733,262 734,261 735,261 735,260 737,260
	737,261 740,261 742,261 742,260 743,261 745,261 746,260 "/>
<polygon class="st1" points="728,267 729,266 729,265 727,265 727,266 "/>
<path class="st1" d="M730,263c0,1,1,2,1,2h1v-1l-1-1H730z"/>
<polygon class="st1" points="740,270 740,272 743,272 743,271 742,270 "/>
<polygon class="st3" points="743,273 745,273 745,272 744,272 744,271 743,271 "/>
<path class="st1" d="M499,527l10-4h19l2-1l4,1c0,0,5,0,5,0s5-1,5-1s1,1,2,1s3,1,3,1l1-1h5l1-1l-3-1l-5-1h-11l-7-1h-11l-6,2h-6l-3,1
	l-1,1v1h-2l-1,1l-1,1V527z"/>
<path class="st1" d="M621,677l-4,1v7l-1,10l1,13l6,12l1.78,4h3.1c0,0-2.87-6-2.87-7s-3-6-3-7s2-9,2-9v-4v-12l-2-6L621,677z"/>
<path class="st1" d="M657.02,724l-0.02-6l2-1v-7l-1-3h3v-2l-2-2l1-5h4l4,1l-2,3h3l3-2l4,1c2,0,6,0,6,0v4l-2,4l-5,6l-2,6l-1.05,3
	H657.02z"/>
<polygon class="st1" points="697.49,724 702,718 707,716 708,716 708,718 706,720 715,718 709,721 711,722 723.04,724 "/>
<polygon class="st1" points="728,682 726,686 726,690 721,696 718,698 722,689 723,686 723,685 724,683 "/>
<polygon class="st1" points="730,669 728,672 728,676 728,678 729,674 "/>
<polygon class="st1" points="730,680 732,677 732,674 732,669 731,672 730,677 "/>
<path class="st1" d="M720,662l5-5l2-5l2-3l4-1l2,2h2l4-7l6-10l3-6v-2l2-3l-7,4l-3,2l3-7l6-4c0,0,4-2,5-2s4-2,4-2l2-1l1-3l3-4l1-3
	l-4,2c0,0-2,3-3,4s-3,3-3,3l-4,4l-4,1h-4c0,0-3,2-3,3s-2,3-2,3v5l-3,8l-3,6l-3,3l1-4v-4v-6l-3,5l-4,6l-3,5l-1,5l1,4l-2,2l-1,3
	L720,662z"/>
<polygon class="st1" points="517.97,357.44 518,353 521,351 522,345 518,349 518,345 520,339 522,339 525,334 521,330 519,328
	521,333 518,338 516,338 514,338 514,343 511.29,339.5 "/>
<polygon class="st1" points="506,317.81 509,318 511,313 511,318 510,322 511,325 511,328 511,332 510.06,336 507.76,326 "/>
<polygon class="st1" points="581,320 584,322 582,324 584,327 582,327 580,327 580,326 582,326 581,324 582,322 "/>
<polygon class="st1" points="584,330 584,333 583,333 583,332 "/>
<path class="st1" d="M583,336c0,0,0,5,1,6s2,4,2,4l1-3l-1-4L583,336z"/>
<polygon class="st1" points="586,356 587,360 588,363 589,365 589,369 591,367 592,364 591,358 589,357 "/>
<polygon class="st1" points="591,369 590.51,371.47 590,374 590,377 592,374 "/>
<polygon class="st1" points="579,365 582,367 583,369 583,366 581,364 "/>
<polygon class="st1" points="583,374 585,377 586,379 586,377 585,375 "/>
<polygon class="st1" points="585,395 587,387 588,393 588,395 "/>
<polygon class="st1" points="610,389 612,383 614,377 617,372 619,370 621,372 622,370 620,369 621,368 623,367 626,367 626,365
	628,364 629,362 629,360 630,357 631,358 632,355 634,353 635,351 636,350 637,347 640,345 636,346 634,347 632,347 631,349
	633,349 633,351 631,350 629,351 627,352 628,354 626,355 624,356 621,359 618,363 617,365 617,367 619,367 617,369 615,370
	613,375 611,378 611,381 610,383 "/>
<polygon class="st1" points="656,313 654,315 654,318 651,320 650,321 648,321 652,318 653,316 655,313 "/>
<polygon class="st1" points="648,324 645,327 645,328 644,326 646,324 "/>
<polygon class="st1" points="644,331 642,332 643,330 "/>
<polygon class="st1" points="634,144 631,143 628,141 624,141 622,138 620,136 617,135 622,135 626,136 626,135 623,134 622,133
	619,133 615,134 618,132 617,131 621,131 623,130 623,128 625,130 623,132 625,133 627,132 630,131 628,134 628,136 629,138
	630,136 632,137 633,140 634,142 635,139 637,140 636,141 636,143 "/>
<polygon class="st1" points="639,144 640,146 642,147 644,147 645,148 645,146 642,145 643,142 640,140 641,143 641,145 "/>
<polygon class="st1" points="663,115 663,119 664,117 "/>
<polygon class="st1" points="662,121 663,125 665,128 664,125 "/>
<path class="st1" d="M655,130c0,0,0,3,1,3s3,2,3,2l-1-2L655,130z"/>
<polygon class="st1" points="662,138 664,141 663,139 "/>
<polygon class="st1" points="699,131 700,134 700,132 "/>
<path class="st1" d="M708,104c1,0,2,4,2,4l2,1l-1-2L708,104z"/>
<path class="st1" d="M713,109l1,2c0,0,2-1,2,0s3,1,3,1l3,2l4,4l3,5l-2-5l-3-4l-3-3l-3-2l-1,1l-1-2h-3V109z"/>
<polygon class="st1" points="724,113 729,117 727,114 725,112 "/>
<polygon class="st1" points="734,126 736,130 736,127 "/>
<polygon class="st1" points="737,123 739,126 740,126 739,124 "/>
<polygon class="st1" points="743,149 749,156 747,152 "/>
<polygon class="st1" points="750,97 752,96 760,99 754,96 751,95 "/>
<polygon class="st1" points="760,97 766,100 763,97 "/>
<path class="st1" d="M755,223c0-1-6-4-6-4h-2l2,2L755,223z"/>
<polygon class="st1" points="750,218 748,214 747,214 748,216 "/>
<polygon class="st1" points="782,233 782,236 786,240 790,241 788,236 785,234 "/>
<polygon class="st1" points="791,240 792,242 795,245 794,242 "/>
<path class="st1" d="M773,224c0,0,4,8,5,8s3,1,3,1l-3-4L773,224z"/>
<polygon class="st1" points="771,217 777,225 780,227 777,223 "/>
<polygon class="st1" points="783,225 784,227 788,232 786,227 "/>
<path class="st1" d="M774,206c0,0,2,7,3,7s2,0,2,0v-3l-3-3L774,206z"/>
<polygon class="st1" points="770,204 773,208 771,207 "/>
<polygon class="st1" points="779,215 780.1,217.2 781,219 782,219 "/>
<polygon class="st1" points="755,157 756,160 758,163 757,159 "/>
<polygon class="st1" points="759,166 762,173 764,174 764,172 761,167 "/>
<polygon class="st1" points="764,176 765,179 767,181 769,181 767,179 766,176 "/>
<polygon class="st1" points="766,183 767,186 769,188 770,189 773,189 770,187 768,185 768,183 "/>
<polygon class="st1" points="768,150 770,155 772,156 770,153 "/>
<polygon class="st1" points="770,157 772,160 772,158 "/>
<polygon class="st1" points="770,161 773,166 772,163 "/>
<polygon class="st1" points="780,114 783,118 787,120 785,117 "/>
<polygon class="st1" points="784,114 788,117 786,114 "/>
<polygon class="st1" points="778,111 773,109 770,108 776,109 "/>
<polygon class="st1" points="781,200 783,206 786,208 785,205 782,201 "/>
<polygon class="st1" points="782,208 783,211 786,214 789,215 787,213 784,210 "/>
<polygon class="st1" points="781,221 783,223 783,221 "/>
<path class="st1" d="M785,220l3,3c0,0,1,2,2,2s2,2,2,2v-1h2v-1l-1-2h-2l1,1l-3-1v-2h-1v-1H785z"/>
<polygon class="st1" points="785,217 788,219 790,221 791,222 792,221 790,220 789,218 787,217 785,215 "/>
<polygon class="st1" points="797,218 797,222 799,224 800,225 802,227 798,221 798,218 796,217 "/>
<polygon class="st1" points="803,225 804,229 806,230 807,230 805,227 "/>
<polygon class="st1" points="781,179 784,189 785,191 786,191 786,189 783,182 "/>
<polygon class="st1" points="777,190 777,192 780,196 778,191 "/>
<path class="st1" d="M800,206v1h-2v-2h-1v-6l-1-1v-1h-1v-2l-1-1v-2h-1v-3h-1v-1h1l3,4l1,3v2l1,4h2v2h1v-3l-1-1v-1l-1-2l1-1l-2-1h3v1
	c0,0,0,0,0,1s1,1,1,1s1,0,1,1s-1,0-1,0l-1,1l2,2v2h1l1,2l1,1l-2,2h-3l2-1l-1-1H800z"/>
<polygon class="st1" points="819,224 820,227 821,230 822,233 823,231 822,228 822,226 821,225 "/>
<polygon class="st1" points="819,222 817,222 816,220 816,219 815,219 815,217 817,218 819,221 "/>
<polygon class="st1" points="804,197 807,199 809,202 810,204 812,209 813,212 815,215 816,214 818,216 816,212 816,210 815,210
	816,209 816,208 814,208 813,206 814,206 814,204 812,205 812,204 813,204 812,203 810,201 808,199 "/>
<polygon class="st1" points="803,192 803,194 807,197 809,198 805,194 "/>
<polygon class="st1" points="797,174 801,180 801,183 803,185 805,188 806,190 802,187 804,190 805,191 807,191 808,193 810,196
	812,196 811,195 808,191 809,189 807,187 807,185 806,185 806,186 804,184 803,182 803,181 802,179 799,175 "/>
<polygon class="st1" points="818,210 818,212 819,212 819,216 820,216 820,219 821,220 821,221 822,221 822,224 823,224 823,226
	824,226 825,231 825,225 824,225 823,221 822,220 823,220 823,218 821,218 821,216 820,215 820,212 819,211 819,209 "/>
<polygon class="st1" points="813,199 813,201 814,201 814,202 815,202 816,203 816,201 814,200 "/>
<polygon class="st1" points="823,203 825,207 827,209 828,212 830,212 829,210 825,206 "/>
<polygon class="st1" points="832,212 833,215 835,217 835,219 836,217 836,216 833,214 "/>
<polygon class="st1" points="821,194 822,197 825,198 825,202 826,202 826,204 827,204 828,205 828,207 829,207 830,208 830,210
	831,209 832,210 834,211 833,208 831,205 830,204 826,200 826,199 825,197 823,196 "/>
<polygon class="st1" points="822,190 825,193 823,192 "/>
<polygon class="st1" points="837,211 840,218 842,219 843,219 841,216 841,215 839,214 839,212 "/>
<polygon class="st1" points="842,220 842,223 843,223 843,225 846,225 845,223 844,221 843,220 "/>
<polygon class="st1" points="847,223 849,227 850,229 852,231 852,228 850,227 849,225 848,224 "/>
<polygon class="st1" points="853,230 855,233 855,231 "/>
<path class="st1" d="M857,232c1,0,4,4,4,4l-1-3L857,232z"/>
<path class="st1" d="M856,228c0-1,2,1,2,1l6,5l-6-6l-1-1L856,228z"/>
<polygon class="st1" points="850,220 853,223 856,225 854,222 "/>
<polygon class="st1" points="853,209 856,215 857,219 857,222 861,225 862,227 860,220 858,215 "/>
<polygon class="st1" points="858,210 860,216 861,218 867,225 865,220 863,217 862,214 860,211 "/>
<polygon class="st1" points="850,204 855,208 853,205 "/>
<path class="st1" d="M801,129c7,6,7,6,7,6h1l-4-4L801,129z"/>
<polygon class="st1" points="812,131 815,134 814,132 "/>
<polygon class="st1" points="813,136 816,139 815,137 "/>
<polygon class="st1" points="821,153 823,155 827,160 827,158 824,154 822,152 "/>
<polygon class="st1" points="826,156 829,158 830,158 829,157 828,156 "/>
<polygon class="st1" points="833,157 835,160 838,163 840,164 838,161 835,158 "/>
<polygon class="st1" points="849,120 852,124 861,134 864,134 859,129 854,124 851,121 "/>
<polygon class="st1" points="864,137 869,143 871,145 868,140 "/>
<polygon class="st1" points="853,198 855,203 858,203 855,200 "/>
<polygon class="st1" points="841,173 844,177 846,181 849,185 850,187 849,184 846,178 844,175 "/>
<polygon class="st1" points="839,167 840,170 843,171 840,168 "/>
<polygon class="st1" points="851,188 853,193 856,197 858,200 861,203 858,197 856,194 853,190 "/>
<path class="st1" d="M848,179l3,4l3,3l2,5c0,0,2,1,2,2s3,3,3,3l-3-5l-2-2l-1-4l-4-3L848,179z"/>
<polygon class="st1" points="846,176 849,177 850,179 855,182 851,178 849,176 "/>
<path class="st1" d="M876,227l-8-2l1-1l-1-3l-2-1l-1-3v-2l-2-1v-2h2l2,4c0,0,0,3,1,3s2,1,2,1l-1-3l-3-4l-2-3l-1-2l-1-4l3,5l3,3l3,5
	l1,3l2,1v3L876,227z"/>
<path class="st1" d="M875,219c0,0,0,4,1,4s2,3,2,3l1,2l2,2l1,1c0,0-2-3-2-4s-1-4-1-4h1v-3l-1,2h-2v-2L875,219z"/>
<polyline class="st1" points="879,220 878,217 877,215 877,213 876,215 875,216 877,217 878,219 879,220 "/>
</svg>
